HIERARCHY
ROOT Hips
{
 OFFSET 0.000000 0.000000 0.000000
 CHANNELS 6 Xposition Yposition Zposition Yrotation Xrotation Zrotation
 JOINT Chest
 {
  OFFSET 0.000000 9.585900 0.002600
  CHANNELS 3 Yrotation Xrotation Zrotation
  JOINT Chest2
  {
   OFFSET 0.000000 9.601200 -0.005300
   CHANNELS 3 Yrotation Xrotation Zrotation
   JOINT Chest3
   {
    OFFSET 0.000000 9.561800 0.000000
    CHANNELS 3 Yrotation Xrotation Zrotation
    JOINT Chest4
    {
     OFFSET 0.000000 9.552100 0.000000
     CHANNELS 3 Yrotation Xrotation Zrotation
     JOINT Neck
     {
      OFFSET 0.000000 14.453000 0.000000
      CHANNELS 3 Yrotation Xrotation Zrotation
      JOINT Head
      {
       OFFSET 0.000000 8.936500 -0.011300
       CHANNELS 3 Yrotation Xrotation Zrotation
       End Site
       {
        OFFSET 0.000000 17.073600 -0.006000
       }
      }
     }
     JOINT RightCollar
     {
      OFFSET -2.921100 9.558500 0.000000
      CHANNELS 3 Yrotation Xrotation Zrotation
      JOINT RightShoulder
      {
       OFFSET -13.519700 0.000000 0.000000
       CHANNELS 3 Yrotation Xrotation Zrotation
       JOINT RightElbow
       {
        OFFSET 0.000000 -29.696600 0.000000
        CHANNELS 3 Yrotation Xrotation Zrotation
        JOINT RightWrist
        {
         OFFSET 0.000000 -24.004700 0.000000
         CHANNELS 3 Yrotation Xrotation Zrotation
         End Site
         {
          OFFSET 0.000000 -17.728500 0.000000
         }
        }
       }
      }
     }
     JOINT LeftCollar
     {
      OFFSET 2.921100 9.558500 0.000000
      CHANNELS 3 Yrotation Xrotation Zrotation
      JOINT LeftShoulder
      {
       OFFSET 13.519700 0.000000 0.000000
       CHANNELS 3 Yrotation Xrotation Zrotation
       JOINT LeftElbow
       {
        OFFSET 0.000000 -29.696600 0.000000
        CHANNELS 3 Yrotation Xrotation Zrotation
        JOINT LeftWrist
        {
         OFFSET 0.000000 -24.004700 0.000000
         CHANNELS 3 Yrotation Xrotation Zrotation
         End Site
         {
          OFFSET 0.000000 -17.728500 0.000000
         }
        }
       }
      }
     }
    }
   }
  }
 }
 JOINT RightHip
 {
  OFFSET -7.771700 -0.012900 -0.001300
  CHANNELS 3 Yrotation Xrotation Zrotation
  JOINT RightKnee
  {
   OFFSET 0.000000 -40.869800 0.001200
   CHANNELS 3 Yrotation Xrotation Zrotation
   JOINT RightAnkle
   {
    OFFSET 0.000000 -39.717900 0.002100
    CHANNELS 3 Yrotation Xrotation Zrotation
    JOINT RightToe
    {
     OFFSET 0.000000 -4.965400 11.033500
     CHANNELS 3 Yrotation Xrotation Zrotation
     End Site
     {
      OFFSET 0.000000 -1.423100 5.872300
     }
    }
   }
  }
 }
 JOINT LeftHip
 {
  OFFSET 7.771700 -0.012900 -0.001300
  CHANNELS 3 Yrotation Xrotation Zrotation
  JOINT LeftKnee
  {
   OFFSET 0.000000 -40.869800 0.001200
   CHANNELS 3 Yrotation Xrotation Zrotation
   JOINT LeftAnkle
   {
    OFFSET 0.000000 -39.717900 0.002100
    CHANNELS 3 Yrotation Xrotation Zrotation
    JOINT LeftToe
    {
     OFFSET 0.000000 -4.965400 11.033500
     CHANNELS 3 Yrotation Xrotation Zrotation
     End Site
     {
      OFFSET 0.000000 -1.423100 5.872300
     }
    }
   }
  }
 }
}
MOTION
Frames: 11
Frame Time: 0.008333
-93.000040 46.745877 -26.862740 176.865353 -33.497321 -4.183450 -0.047080 19.695048 1.534330 -0.029735 2.418672 0.169048 -0.070946 3.968967 0.272707 0.005739 17.055024 1.223635 -2.254470 19.589280 -1.739083 -3.583554 0.570121 -2.484796 0.145734 1.851827 -0.172563 -8.353622 -9.635292 -16.168742 -80.671036 -79.920208 113.017453 6.253468 8.878211 -9.607505 -0.754698 0.786200 1.340562 -1.517790 -9.582576 15.752570 109.801614 -83.226834 -144.206178 -12.064849 15.613086 -10.387789 -4.309969 -52.684990 -1.330306 -153.041544 75.974223 -144.104348 -9.791043 -21.112111 -4.923023 -0.020272 -0.845899 0.267915 -2.331747 -55.423735 12.861982 -112.996447 82.983329 -117.716708 6.109581 -5.709571 4.658651 0.409950 0.058630 0.279011
-92.960096 46.745683 -26.858113 176.794425 -33.492723 -4.138888 0.016879 19.693461 1.538605 -0.030559 2.414099 0.164416 -0.012889 3.994205 0.290519 0.024757 17.045185 1.222872 -2.217579 19.582907 -1.779856 -3.503644 0.557730 -2.570245 0.185072 1.845339 -0.216861 -7.852705 -9.663540 -16.244672 -79.281718 -79.843628 112.187829 6.243270 8.805581 -9.174484 -0.748118 0.764370 1.335439 -1.548778 -9.569620 15.768265 109.056142 -83.286569 -143.413082 -11.991548 15.598456 -10.314147 -4.554636 -52.672489 -1.406548 -152.926068 75.973769 -143.987996 -10.001262 -20.984069 -4.990902 0.068039 -0.865304 0.225549 -2.245718 -55.435373 12.891632 -112.889283 82.951051 -117.633429 6.185956 -5.711274 4.713187 0.308556 0.057497 0.229067
-92.912414 46.746685 -26.852686 176.714599 -33.495861 -4.109960 0.090311 19.694225 1.557494 -0.018817 2.423259 0.171822 -0.002133 3.996223 0.288237 0.082323 17.049204 1.229372 -2.175669 19.580925 -1.814369 -3.416515 0.553607 -2.646060 0.227163 1.840010 -0.257827 -7.280936 -9.691586 -16.313606 -77.277351 -79.595511 110.723009 6.128681 8.689261 -8.874211 -0.783998 0.743842 1.340430 -1.506439 -9.548431 15.777278 107.983959 -83.303677 -142.340784 -11.895083 15.576528 -10.232465 -4.813371 -52.657888 -1.439655 -152.828520 75.968274 -143.887913 -10.134751 -20.847500 -5.070641 0.121745 -0.884271 0.183076 -2.146890 -55.444469 12.972852 -112.661627 82.879628 -117.417986 6.211787 -5.705288 4.758387 0.271432 0.052885 0.204476
-92.863315 46.748683 -26.847160 176.636822 -33.504570 -4.081807 0.168047 19.707282 1.583153 -0.010680 2.424733 0.171676 -0.006780 3.992300 0.284212 0.146319 17.058992 1.235660 -2.128804 19.582114 -1.843349 -3.322070 0.555633 -2.713494 0.273169 1.830839 -0.294806 -6.647096 -9.720303 -16.378690 -74.963679 -79.223935 108.914553 5.978821 8.576928 -8.696862 -0.756055 0.722903 1.336954 -1.499588 -9.518914 15.797873 106.723877 -83.288399 -141.115684 -11.787304 15.544020 -10.152632 -5.064979 -52.643061 -1.471318 -152.749701 75.957216 -143.808142 -10.200981 -20.707839 -5.152130 0.146347 -0.899933 0.137350 -2.044491 -55.447473 13.043993 -112.420073 82.804753 -117.164882 6.215911 -5.699854 4.781929 0.256505 0.052730 0.184243
-92.821275 46.751012 -26.842001 176.537576 -33.515669 -4.004959 0.224655 19.737135 1.562462 0.005591 2.422723 0.169592 0.001646 3.977230 0.279274 0.204305 17.066607 1.239001 -2.077627 19.584911 -1.868332 -3.220920 0.560881 -2.774866 0.323454 1.817215 -0.326763 -5.961286 -9.752334 -16.440683 -72.618809 -78.807676 107.030368 5.849185 8.560516 -8.624896 -0.727511 0.706705 1.335389 -1.505914 -9.494186 15.817255 105.305508 -83.263905 -139.717983 -11.678464 15.497976 -10.085669 -5.240583 -52.637115 -1.563541 -152.705072 75.943847 -143.766348 -10.207490 -20.589689 -5.226379 0.139782 -0.885962 0.082582 -1.903407 -55.444649 13.033049 -112.302235 82.771639 -117.043663 6.289612 -5.684099 4.806669 0.163618 0.033222 0.153814
-92.782241 46.752870 -26.835308 176.406229 -33.517541 -3.909536 0.317848 19.743745 1.536855 0.011857 2.426547 0.169912 0.023262 3.987985 0.279671 0.243704 17.053912 1.237583 -2.075024 19.579025 -1.868487 -3.069098 0.571414 -2.865919 0.370670 1.798640 -0.349812 -5.231107 -9.788976 -16.498193 -70.279056 -78.409291 105.112540 5.719005 8.572082 -8.610750 -0.718306 0.697264 1.340461 -1.482901 -9.469531 15.836348 103.919541 -83.228028 -138.362484 -11.572917 15.438600 -10.033328 -5.374517 -52.647374 -1.662539 -152.711212 75.937293 -143.770916 -10.199932 -20.454573 -5.295958 0.129577 -0.881028 0.029657 -1.692868 -55.453986 13.029808 -112.083841 82.706875 -116.825340 6.263405 -5.671324 4.852018 0.148334 0.020767 0.140836
-92.747998 46.755792 -26.830285 176.328759 -33.526281 -3.838856 0.371847 19.759218 1.505646 0.018177 2.427424 0.168912 0.033639 3.989344 0.278068 0.288335 17.056219 1.235640 -1.995880 19.584931 -1.892903 -2.990430 0.572961 -2.890603 0.387647 1.776205 -0.354254 -4.449951 -9.835368 -16.557089 -68.006772 -78.063936 103.231363 5.561940 8.557129 -8.607508 -0.725866 0.689698 1.355612 -1.435541 -9.439252 15.854788 102.637960 -83.186016 -137.124057 -11.473550 15.368379 -9.989021 -5.519641 -52.646914 -1.788554 -152.798748 75.945659 -143.844326 -10.189932 -20.296781 -5.358579 0.111512 -0.894262 -0.023366 -1.518853 -55.451693 13.004524 -111.907756 82.655839 -116.649288 6.257565 -5.675511 4.893455 0.128823 0.023433 0.122444
-92.721054 46.757650 -26.824960 176.243208 -33.529577 -3.749245 0.430433 19.765655 1.459900 0.027290 2.432017 0.166747 0.042835 3.990943 0.275982 0.299817 17.050494 1.238291 -1.896644 19.599755 -1.929612 -2.914844 0.572867 -2.905155 0.383198 1.764826 -0.349850 -3.622002 -9.896702 -16.624328 -65.922451 -77.797069 101.509002 5.425170 8.597875 -8.596089 -0.699252 0.702235 1.361210 -1.395108 -9.412375 15.875233 101.466773 -83.144106 -136.002968 -11.385895 15.294352 -9.944867 -5.614174 -52.652249 -1.950916 -152.959063 75.972359 -143.978004 -10.156008 -20.145062 -5.419946 0.077430 -0.889398 -0.079764 -1.334538 -55.452581 12.943617 -111.767541 82.620712 -116.519268 6.299050 -5.672953 4.942902 0.078773 0.015578 0.093557
-92.698485 46.757660 -26.818557 176.192126 -33.522176 -3.684295 0.460264 19.758171 1.420653 0.043857 2.444541 0.163403 0.050716 3.992073 0.273666 0.305303 17.041945 1.240603 -1.847302 19.606261 -1.944090 -2.796953 0.576277 -2.947901 0.496904 1.720947 -0.381166 -2.941740 -9.932022 -16.639771 -63.993749 -77.623579 99.918104 5.368881 8.720918 -8.557455 -0.665931 0.725130 1.370878 -1.367208 -9.387648 15.896347 100.433768 -83.107360 -135.017851 -11.313836 15.221976 -9.905161 -5.726794 -52.661504 -2.106635 -153.162477 76.019714 -144.146407 -10.136504 -19.944743 -5.486445 0.065297 -0.918852 -0.120753 -1.197785 -55.461667 12.882977 -111.617722 82.593321 -116.363812 6.310824 -5.678607 4.966722 0.052908 0.027183 0.064298
-92.679957 46.755329 -26.811065 176.149760 -33.506360 -3.632168 0.499495 19.754169 1.391856 0.046174 2.443731 0.164355 0.065993 3.998405 0.271877 0.331721 17.040877 1.231562 -1.796077 19.604687 -1.944672 -2.706919 0.570625 -2.967562 0.533677 1.667060 -0.372751 -2.244972 -9.985737 -16.663504 -62.142526 -77.524802 98.397869 5.393084 8.876913 -8.471903 -0.678977 0.735256 1.406695 -1.329091 -9.353182 15.911813 99.595847 -83.082118 -134.215765 -11.261319 15.149789 -9.885001 -5.842773 -52.673433 -2.244506 -153.381508 76.087267 -144.327316 -10.102049 -19.712017 -5.561902 0.058634 -0.958128 -0.151497 -1.094452 -55.478608 12.830887 -111.497040 82.577791 -116.231622 6.325479 -5.684861 4.974894 0.036444 0.038870 0.050777
-92.664796 46.750966 -26.803174 176.115485 -33.488076 -3.595128 0.576236 19.777184 1.396434 0.000183 2.404348 0.158648 0.077644 4.004330 0.271266 0.370533 17.050390 1.218959 -1.722113 19.604094 -1.950137 -2.647298 0.553690 -2.966944 0.516517 1.630441 -0.348605 -1.540986 -10.076432 -16.689352 -60.365424 -77.456955 96.965204 5.484763 9.041456 -8.328522 -0.695598 0.747767 1.446107 -1.299289 -9.315853 15.923411 98.949820 -83.074940 -133.591395 -11.229813 15.075481 -9.886715 -5.962327 -52.681405 -2.361189 -153.588529 76.167872 -144.493804 -10.045094 -19.450869 -5.648726 0.056784 -1.003669 -0.170186 -1.026721 -55.498873 12.796090 -111.404190 82.567774 -116.125922 6.342743 -5.690826 4.976542 0.022461 0.051289 0.039977
